<mxfile host="app.diagrams.net" agent="Mozilla/5.0 (Windows NT 10.0; Win64; x64) AppleWebKit/537.36 (KHTML, like Gecko) Chrome/130.0.0.0 Safari/537.36 Edg/130.0.0.0" version="24.8.3">
  <diagram name="Page-1" id="nib42cYPGs-oc9INBqAB">
    <mxGraphModel dx="7365" dy="3937" grid="1" gridSize="10" guides="1" tooltips="1" connect="1" arrows="1" fold="1" page="1" pageScale="1" pageWidth="1654" pageHeight="1169" math="0" shadow="0">
      <root>
        <mxCell id="0" />
        <mxCell id="1" parent="0" />
        <mxCell id="bOzY_ASSyjPxlshE5xiK-36" value="" style="rounded=0;whiteSpace=wrap;html=1;fillColor=none;fontColor=#000000;strokeColor=#000000;labelBackgroundColor=none;" vertex="1" parent="1">
          <mxGeometry x="587" y="-460" width="670" height="310" as="geometry" />
        </mxCell>
        <mxCell id="bOzY_ASSyjPxlshE5xiK-32" value="" style="rounded=0;whiteSpace=wrap;html=1;strokeWidth=1;fillColor=none;fontColor=#000000;strokeColor=#000000;labelBackgroundColor=none;" vertex="1" parent="1">
          <mxGeometry x="677" y="-410" width="570" height="250" as="geometry" />
        </mxCell>
        <mxCell id="bOzY_ASSyjPxlshE5xiK-31" value="" style="rounded=0;whiteSpace=wrap;html=1;strokeWidth=1;fillColor=none;fontColor=#000000;strokeColor=#000000;labelBackgroundColor=none;" vertex="1" parent="1">
          <mxGeometry x="757" y="-360" width="480" height="190" as="geometry" />
        </mxCell>
        <mxCell id="bOzY_ASSyjPxlshE5xiK-60" value="" style="endArrow=classic;startArrow=classic;html=1;rounded=0;exitX=1;exitY=0.5;exitDx=0;exitDy=0;entryX=0;entryY=0.5;entryDx=0;entryDy=0;strokeWidth=3;fontColor=#000000;strokeColor=#000000;labelBackgroundColor=none;" edge="1" parent="1" source="bOzY_ASSyjPxlshE5xiK-18" target="bOzY_ASSyjPxlshE5xiK-20">
          <mxGeometry width="50" height="50" relative="1" as="geometry">
            <mxPoint x="840" y="-810" as="sourcePoint" />
            <mxPoint x="890" y="-860" as="targetPoint" />
            <Array as="points">
              <mxPoint x="910" y="-865" />
              <mxPoint x="910" y="-830" />
            </Array>
          </mxGeometry>
        </mxCell>
        <mxCell id="bOzY_ASSyjPxlshE5xiK-61" value="" style="endArrow=classic;startArrow=classic;html=1;rounded=0;exitX=1;exitY=0.5;exitDx=0;exitDy=0;entryX=0.5;entryY=0;entryDx=0;entryDy=0;strokeWidth=3;fontColor=#000000;strokeColor=#000000;labelBackgroundColor=none;" edge="1" parent="1" source="bOzY_ASSyjPxlshE5xiK-10" target="bOzY_ASSyjPxlshE5xiK-36">
          <mxGeometry width="50" height="50" relative="1" as="geometry">
            <mxPoint x="840" y="-600" as="sourcePoint" />
            <mxPoint x="890" y="-650" as="targetPoint" />
            <Array as="points">
              <mxPoint x="922" y="-665" />
            </Array>
          </mxGeometry>
        </mxCell>
        <mxCell id="bOzY_ASSyjPxlshE5xiK-67" value="" style="endArrow=classic;html=1;rounded=0;exitX=1;exitY=0.5;exitDx=0;exitDy=0;entryX=0.5;entryY=1;entryDx=0;entryDy=0;strokeWidth=3;fontColor=#000000;strokeColor=#000000;labelBackgroundColor=none;" edge="1" parent="1" source="bOzY_ASSyjPxlshE5xiK-25" target="bOzY_ASSyjPxlshE5xiK-23">
          <mxGeometry width="50" height="50" relative="1" as="geometry">
            <mxPoint x="730" y="-430" as="sourcePoint" />
            <mxPoint x="780" y="-480" as="targetPoint" />
            <Array as="points">
              <mxPoint x="1200" y="-245" />
              <mxPoint x="1200" y="-110" />
              <mxPoint x="454" y="-110" />
            </Array>
          </mxGeometry>
        </mxCell>
        <mxCell id="bOzY_ASSyjPxlshE5xiK-69" value="" style="endArrow=classic;html=1;rounded=0;strokeWidth=3;fontColor=#000000;strokeColor=#000000;labelBackgroundColor=none;" edge="1" parent="1" target="IxLdBDEyq116cE8Yx0sh-14">
          <mxGeometry width="50" height="50" relative="1" as="geometry">
            <mxPoint x="910" y="-340" as="sourcePoint" />
            <mxPoint x="570" y="-480" as="targetPoint" />
          </mxGeometry>
        </mxCell>
        <mxCell id="bOzY_ASSyjPxlshE5xiK-41" value="" style="rounded=0;whiteSpace=wrap;html=1;fillColor=none;fontColor=#000000;strokeColor=#000000;labelBackgroundColor=none;" vertex="1" parent="1">
          <mxGeometry x="350" y="-340" width="207" height="190" as="geometry" />
        </mxCell>
        <mxCell id="IxLdBDEyq116cE8Yx0sh-1" value="" style="sketch=0;verticalLabelPosition=bottom;sketch=0;aspect=fixed;html=1;verticalAlign=top;strokeColor=#000000;fillColor=#000000;align=center;outlineConnect=0;pointerEvents=1;shape=mxgraph.citrix2.users;fontColor=#000000;labelBackgroundColor=none;" parent="1" vertex="1">
          <mxGeometry x="350" y="-420" width="132.39" height="70" as="geometry" />
        </mxCell>
        <mxCell id="bOzY_ASSyjPxlshE5xiK-45" value="End Users" style="text;html=1;align=center;verticalAlign=middle;resizable=0;points=[];autosize=1;strokeColor=#000000;fillColor=#CFCFCF;fontStyle=1;fontColor=#000000;labelBackgroundColor=none;" vertex="1" parent="1">
          <mxGeometry x="350" y="-340" width="80" height="30" as="geometry" />
        </mxCell>
        <mxCell id="bOzY_ASSyjPxlshE5xiK-23" value="" style="whiteSpace=wrap;html=1;aspect=fixed;fillColor=none;fontColor=#000000;strokeColor=#000000;labelBackgroundColor=none;" vertex="1" parent="1">
          <mxGeometry x="408.5" y="-290" width="90" height="90" as="geometry" />
        </mxCell>
        <mxCell id="IxLdBDEyq116cE8Yx0sh-18" value="Web browser" style="image;aspect=fixed;html=1;points=[];align=center;fontSize=12;image=img/lib/azure2/general/Browser.svg;fontColor=#000000;strokeColor=#000000;labelBackgroundColor=none;" parent="1" vertex="1">
          <mxGeometry x="429.75" y="-270" width="47.5" height="38" as="geometry" />
        </mxCell>
        <mxCell id="IxLdBDEyq116cE8Yx0sh-10" value="" style="shape=image;verticalLabelPosition=bottom;labelBackgroundColor=none;verticalAlign=top;aspect=fixed;imageAspect=0;image=https://swimburger.net/media/ppnn3pcl/azure.png;fontColor=#000000;strokeColor=#000000;" parent="1" vertex="1">
          <mxGeometry x="587" y="-530" width="70" height="70" as="geometry" />
        </mxCell>
        <mxCell id="IxLdBDEyq116cE8Yx0sh-11" value="Resource group" style="image;aspect=fixed;html=1;points=[];align=center;fontSize=12;image=img/lib/azure2/general/Resource_Groups.svg;fontColor=#000000;strokeColor=#000000;labelBackgroundColor=none;" parent="1" vertex="1">
          <mxGeometry x="735.75" y="-380" width="42.5" height="40" as="geometry" />
        </mxCell>
        <mxCell id="IxLdBDEyq116cE8Yx0sh-12" value="Subscription" style="image;aspect=fixed;html=1;points=[];align=center;fontSize=12;image=img/lib/azure2/general/Subscriptions.svg;fontColor=#000000;strokeColor=#000000;labelBackgroundColor=none;" parent="1" vertex="1">
          <mxGeometry x="667" y="-420" width="24.79" height="40" as="geometry" />
        </mxCell>
        <mxCell id="bOzY_ASSyjPxlshE5xiK-35" value="" style="endArrow=classic;html=1;rounded=0;exitX=1;exitY=0.5;exitDx=0;exitDy=0;entryX=0;entryY=0.5;entryDx=0;entryDy=0;strokeWidth=3;fontColor=#000000;strokeColor=#000000;labelBackgroundColor=none;" edge="1" parent="1" source="bOzY_ASSyjPxlshE5xiK-27" target="bOzY_ASSyjPxlshE5xiK-25">
          <mxGeometry width="50" height="50" relative="1" as="geometry">
            <mxPoint x="367" y="-420" as="sourcePoint" />
            <mxPoint x="417" y="-470" as="targetPoint" />
          </mxGeometry>
        </mxCell>
        <mxCell id="bOzY_ASSyjPxlshE5xiK-49" value="Azure Cloud" style="text;html=1;align=center;verticalAlign=middle;resizable=0;points=[];autosize=1;strokeColor=#000000;fillColor=#CFCFCF;fontStyle=1;fontColor=#000000;labelBackgroundColor=none;" vertex="1" parent="1">
          <mxGeometry x="587" y="-460" width="90" height="30" as="geometry" />
        </mxCell>
        <mxCell id="bOzY_ASSyjPxlshE5xiK-68" value="" style="endArrow=classic;html=1;rounded=0;exitX=0.5;exitY=1;exitDx=0;exitDy=0;entryX=0.448;entryY=-0.039;entryDx=0;entryDy=0;entryPerimeter=0;strokeWidth=3;fontColor=#000000;strokeColor=#000000;labelBackgroundColor=none;" edge="1" parent="1" source="bOzY_ASSyjPxlshE5xiK-20" target="IxLdBDEyq116cE8Yx0sh-17">
          <mxGeometry width="50" height="50" relative="1" as="geometry">
            <mxPoint x="730" y="-430" as="sourcePoint" />
            <mxPoint x="780" y="-480" as="targetPoint" />
            <Array as="points">
              <mxPoint x="1150" y="-340" />
              <mxPoint x="843" y="-340" />
            </Array>
          </mxGeometry>
        </mxCell>
        <mxCell id="bOzY_ASSyjPxlshE5xiK-25" value="" style="whiteSpace=wrap;html=1;aspect=fixed;fillColor=none;fontColor=#000000;strokeColor=#000000;labelBackgroundColor=none;" vertex="1" parent="1">
          <mxGeometry x="1027" y="-310" width="130" height="130" as="geometry" />
        </mxCell>
        <mxCell id="IxLdBDEyq116cE8Yx0sh-15" value="Content delivery&amp;nbsp;&lt;div&gt;network&lt;/div&gt;" style="image;aspect=fixed;html=1;points=[];align=center;fontSize=12;image=img/lib/azure2/app_services/CDN_Profiles.svg;fontColor=#000000;strokeColor=#000000;labelBackgroundColor=none;" parent="1" vertex="1">
          <mxGeometry x="1058.85" y="-284" width="66.3" height="39" as="geometry" />
        </mxCell>
        <mxCell id="bOzY_ASSyjPxlshE5xiK-27" value="" style="whiteSpace=wrap;html=1;aspect=fixed;fillColor=none;fontColor=#000000;strokeColor=#000000;labelBackgroundColor=none;" vertex="1" parent="1">
          <mxGeometry x="845.75" y="-310" width="130" height="130" as="geometry" />
        </mxCell>
        <mxCell id="IxLdBDEyq116cE8Yx0sh-14" value="Static website" style="shape=image;verticalLabelPosition=bottom;labelBackgroundColor=none;verticalAlign=top;aspect=fixed;imageAspect=0;image=https://help.sumologic.com/img/integrations/microsoft-azure/azure-public-ipAddress.png;fontColor=#000000;strokeColor=#000000;" parent="1" vertex="1">
          <mxGeometry x="890.75" y="-265" width="40" height="40" as="geometry" />
        </mxCell>
        <mxCell id="IxLdBDEyq116cE8Yx0sh-17" value="Storage account" style="image;aspect=fixed;html=1;points=[];align=center;fontSize=12;image=img/lib/azure2/storage/Storage_Accounts.svg;fontColor=#000000;strokeColor=#000000;labelBackgroundColor=none;" parent="1" vertex="1">
          <mxGeometry x="825.75" y="-320" width="37.5" height="30" as="geometry" />
        </mxCell>
        <mxCell id="bOzY_ASSyjPxlshE5xiK-38" value="" style="rounded=0;whiteSpace=wrap;html=1;fillColor=none;fontColor=#000000;strokeColor=#000000;labelBackgroundColor=none;" vertex="1" parent="1">
          <mxGeometry x="350" y="-940" width="430" height="370" as="geometry" />
        </mxCell>
        <mxCell id="IxLdBDEyq116cE8Yx0sh-2" value="" style="sketch=0;pointerEvents=1;shadow=0;dashed=0;html=1;strokeColor=#000000;fillColor=#505050;labelPosition=center;verticalLabelPosition=bottom;verticalAlign=top;outlineConnect=0;align=center;shape=mxgraph.office.users.administrator;fontColor=#000000;labelBackgroundColor=none;" parent="1" vertex="1">
          <mxGeometry x="350" y="-1020" width="69.5" height="70" as="geometry" />
        </mxCell>
        <mxCell id="bOzY_ASSyjPxlshE5xiK-22" value="" style="group;dashed=1;dashPattern=8 8;strokeColor=#000000;fillColor=none;fontColor=#000000;labelBackgroundColor=none;" vertex="1" connectable="0" parent="1">
          <mxGeometry x="520" y="-710" width="90" height="90" as="geometry" />
        </mxCell>
        <mxCell id="bOzY_ASSyjPxlshE5xiK-16" value="" style="whiteSpace=wrap;html=1;aspect=fixed;fillColor=none;fontColor=#000000;strokeColor=#000000;labelBackgroundColor=none;" vertex="1" parent="bOzY_ASSyjPxlshE5xiK-22">
          <mxGeometry width="90" height="90" as="geometry" />
        </mxCell>
        <mxCell id="IxLdBDEyq116cE8Yx0sh-4" value="CSS" style="shape=image;verticalLabelPosition=bottom;labelBackgroundColor=none;verticalAlign=top;aspect=fixed;imageAspect=0;image=https://cdn1.iconfinder.com/data/icons/logotypes/32/badge-css-3-512.png;fontColor=#000000;strokeColor=#000000;" parent="bOzY_ASSyjPxlshE5xiK-22" vertex="1">
          <mxGeometry x="20" y="10" width="50" height="50" as="geometry" />
        </mxCell>
        <mxCell id="bOzY_ASSyjPxlshE5xiK-50" value="Developer" style="text;html=1;align=center;verticalAlign=middle;resizable=0;points=[];autosize=1;strokeColor=#000000;fillColor=#CFCFCF;fontStyle=1;fontColor=#000000;labelBackgroundColor=none;" vertex="1" parent="1">
          <mxGeometry x="350" y="-940" width="80" height="30" as="geometry" />
        </mxCell>
        <mxCell id="bOzY_ASSyjPxlshE5xiK-51" value="" style="group;strokeColor=#000000;fillColor=none;fontColor=#000000;labelBackgroundColor=none;" vertex="1" connectable="0" parent="1">
          <mxGeometry x="400" y="-710" width="90" height="90" as="geometry" />
        </mxCell>
        <mxCell id="bOzY_ASSyjPxlshE5xiK-12" value="" style="whiteSpace=wrap;html=1;aspect=fixed;fillColor=none;fontColor=#000000;strokeColor=#000000;labelBackgroundColor=none;" vertex="1" parent="bOzY_ASSyjPxlshE5xiK-51">
          <mxGeometry width="90" height="90" as="geometry" />
        </mxCell>
        <mxCell id="IxLdBDEyq116cE8Yx0sh-5" value="HTML" style="shape=image;verticalLabelPosition=bottom;labelBackgroundColor=none;verticalAlign=top;aspect=fixed;imageAspect=0;image=https://cdn.iconscout.com/icon/free/png-512/html5-10-569380.png;clipPath=inset(4.67% 10% 4% 8%);fontColor=#000000;strokeColor=#000000;" parent="bOzY_ASSyjPxlshE5xiK-51" vertex="1">
          <mxGeometry x="20" y="5" width="53.86861313868613" height="60" as="geometry" />
        </mxCell>
        <mxCell id="bOzY_ASSyjPxlshE5xiK-56" value="" style="endArrow=classic;html=1;rounded=0;exitX=0.5;exitY=0;exitDx=0;exitDy=0;entryX=0.5;entryY=1;entryDx=0;entryDy=0;strokeWidth=3;fontColor=#000000;strokeColor=#000000;labelBackgroundColor=none;" edge="1" parent="1" source="bOzY_ASSyjPxlshE5xiK-12" target="bOzY_ASSyjPxlshE5xiK-7">
          <mxGeometry width="50" height="50" relative="1" as="geometry">
            <mxPoint x="820" y="-720" as="sourcePoint" />
            <mxPoint x="870" y="-770" as="targetPoint" />
            <Array as="points">
              <mxPoint x="445" y="-760" />
              <mxPoint x="485" y="-760" />
            </Array>
          </mxGeometry>
        </mxCell>
        <mxCell id="bOzY_ASSyjPxlshE5xiK-57" value="" style="endArrow=classic;html=1;rounded=0;exitX=0.5;exitY=0;exitDx=0;exitDy=0;entryX=0.5;entryY=1;entryDx=0;entryDy=0;strokeWidth=3;fontColor=#000000;strokeColor=#000000;labelBackgroundColor=none;" edge="1" parent="1" source="bOzY_ASSyjPxlshE5xiK-16" target="bOzY_ASSyjPxlshE5xiK-7">
          <mxGeometry width="50" height="50" relative="1" as="geometry">
            <mxPoint x="580" y="-670" as="sourcePoint" />
            <mxPoint x="630" y="-720" as="targetPoint" />
            <Array as="points">
              <mxPoint x="565" y="-760" />
              <mxPoint x="485" y="-760" />
            </Array>
          </mxGeometry>
        </mxCell>
        <mxCell id="bOzY_ASSyjPxlshE5xiK-58" value="" style="endArrow=classic;html=1;rounded=0;exitX=0.5;exitY=0;exitDx=0;exitDy=0;entryX=0.5;entryY=1;entryDx=0;entryDy=0;strokeWidth=3;fontColor=#000000;strokeColor=#000000;labelBackgroundColor=none;" edge="1" parent="1" source="bOzY_ASSyjPxlshE5xiK-10" target="bOzY_ASSyjPxlshE5xiK-7">
          <mxGeometry width="50" height="50" relative="1" as="geometry">
            <mxPoint x="580" y="-670" as="sourcePoint" />
            <mxPoint x="630" y="-720" as="targetPoint" />
            <Array as="points">
              <mxPoint x="685" y="-760" />
              <mxPoint x="485" y="-760" />
            </Array>
          </mxGeometry>
        </mxCell>
        <mxCell id="bOzY_ASSyjPxlshE5xiK-59" value="" style="endArrow=classic;startArrow=classic;html=1;rounded=0;exitX=1;exitY=0.5;exitDx=0;exitDy=0;entryX=0;entryY=0.5;entryDx=0;entryDy=0;strokeWidth=3;fontColor=#000000;strokeColor=#000000;labelBackgroundColor=none;" edge="1" parent="1" source="bOzY_ASSyjPxlshE5xiK-7" target="bOzY_ASSyjPxlshE5xiK-18">
          <mxGeometry width="50" height="50" relative="1" as="geometry">
            <mxPoint x="860" y="-600" as="sourcePoint" />
            <mxPoint x="910" y="-650" as="targetPoint" />
          </mxGeometry>
        </mxCell>
        <mxCell id="bOzY_ASSyjPxlshE5xiK-39" value="" style="rounded=0;whiteSpace=wrap;html=1;fillColor=none;fontColor=#000000;strokeColor=#000000;labelBackgroundColor=none;" vertex="1" parent="1">
          <mxGeometry x="1050" y="-940" width="207" height="190" as="geometry" />
        </mxCell>
        <mxCell id="bOzY_ASSyjPxlshE5xiK-43" value="GitHub" style="text;html=1;align=center;verticalAlign=middle;resizable=0;points=[];autosize=1;strokeColor=#000000;fillColor=#CFCFCF;fontStyle=1;fontColor=#000000;labelBackgroundColor=none;" vertex="1" parent="1">
          <mxGeometry x="1050" y="-940" width="60" height="30" as="geometry" />
        </mxCell>
        <mxCell id="bOzY_ASSyjPxlshE5xiK-20" value="" style="whiteSpace=wrap;html=1;aspect=fixed;fillColor=none;fontColor=#000000;strokeColor=#000000;labelBackgroundColor=none;" vertex="1" parent="1">
          <mxGeometry x="1093.5" y="-890" width="120" height="120" as="geometry" />
        </mxCell>
        <mxCell id="IxLdBDEyq116cE8Yx0sh-9" value="Repositories&#xa;Actions&#xa;Workflows" style="shape=image;verticalLabelPosition=bottom;labelBackgroundColor=none;verticalAlign=top;aspect=fixed;imageAspect=0;image=https://vectorseek.com/wp-content/uploads/2023/09/GitHub-Actions-Logo-Vector.svg-.png;fontColor=#000000;strokeColor=#000000;" parent="1" vertex="1">
          <mxGeometry x="1128.5000000000002" y="-880" width="50" height="50" as="geometry" />
        </mxCell>
        <mxCell id="bOzY_ASSyjPxlshE5xiK-10" value="" style="whiteSpace=wrap;html=1;aspect=fixed;fillColor=none;fontColor=#000000;strokeColor=#000000;labelBackgroundColor=none;" vertex="1" parent="1">
          <mxGeometry x="640" y="-710" width="90" height="90" as="geometry" />
        </mxCell>
        <mxCell id="IxLdBDEyq116cE8Yx0sh-3" value="Terraform" style="shape=image;verticalLabelPosition=bottom;labelBackgroundColor=none;verticalAlign=top;aspect=fixed;imageAspect=0;image=https://pnghq.com/wp-content/uploads/terraform-logo-png-png-download-86079.png;fontColor=#000000;strokeColor=#000000;" parent="1" vertex="1">
          <mxGeometry x="663" y="-700" width="44" height="50" as="geometry" />
        </mxCell>
        <mxCell id="bOzY_ASSyjPxlshE5xiK-18" value="" style="whiteSpace=wrap;html=1;aspect=fixed;fillColor=none;fontColor=#000000;strokeColor=#000000;labelBackgroundColor=none;" vertex="1" parent="1">
          <mxGeometry x="600" y="-910" width="90" height="90" as="geometry" />
        </mxCell>
        <mxCell id="IxLdBDEyq116cE8Yx0sh-7" value="Git" style="shape=image;verticalLabelPosition=bottom;labelBackgroundColor=none;verticalAlign=top;aspect=fixed;imageAspect=0;image=https://cdn.freebiesupply.com/logos/large/2x/git-icon-logo-png-transparent.png;fillColor=none;fontColor=#000000;strokeColor=#000000;" parent="1" vertex="1">
          <mxGeometry x="620" y="-893" width="50" height="50" as="geometry" />
        </mxCell>
        <mxCell id="bOzY_ASSyjPxlshE5xiK-7" value="" style="whiteSpace=wrap;html=1;aspect=fixed;fillColor=none;fontColor=#000000;strokeColor=#000000;labelBackgroundColor=none;" vertex="1" parent="1">
          <mxGeometry x="440" y="-910" width="90" height="90" as="geometry" />
        </mxCell>
        <mxCell id="IxLdBDEyq116cE8Yx0sh-6" value="Visual Studio &#xa;Code" style="shape=image;verticalLabelPosition=bottom;labelBackgroundColor=none;verticalAlign=top;aspect=fixed;imageAspect=0;image=https://code.visualstudio.com/assets/images/code-stable.png;fillColor=none;fontColor=#000000;strokeColor=#000000;" parent="1" vertex="1">
          <mxGeometry x="464.5454545454545" y="-897.7272727272727" width="40.909090909090914" height="40.909090909090914" as="geometry" />
        </mxCell>
        <mxCell id="bOzY_ASSyjPxlshE5xiK-71" value="" style="shape=image;verticalLabelPosition=bottom;labelBackgroundColor=default;verticalAlign=top;aspect=fixed;imageAspect=0;image=data:image/svg+xml,PHN2ZyB4bWxucz0iaHR0cDovL3d3dy53My5vcmcvMjAwMC9zdmciIHZpZXdCb3g9IjAgMCA0OTYgNTEyIj48cGF0aCBmaWxsPSIjNzU3NTc1IiBkPSJNMTY1LjkgMzk3LjRjMCAyLTIuMyAzLjYtNS4yIDMuNi0zLjMgLjMtNS42LTEuMy01LjYtMy42IDAtMiAyLjMtMy42IDUuMi0zLjYgMy0uMyA1LjYgMS4zIDUuNiAzLjZ6bS0zMS4xLTQuNWMtLjcgMiAxLjMgNC4zIDQuMyA0LjkgMi42IDEgNS42IDAgNi4yLTJzLTEuMy00LjMtNC4zLTUuMmMtMi42LS43LTUuNSAuMy02LjIgMi4zem00NC4yLTEuN2MtMi45IC43LTQuOSAyLjYtNC42IDQuOSAuMyAyIDIuOSAzLjMgNS45IDIuNiAyLjktLjcgNC45LTIuNiA0LjYtNC42LS4zLTEuOS0zLTMuMi01LjktMi45ek0yNDQuOCA4QzEwNi4xIDggMCAxMTMuMyAwIDI1MmMwIDExMC45IDY5LjggMjA1LjggMTY5LjUgMjM5LjIgMTIuOCAyLjMgMTcuMy01LjYgMTcuMy0xMi4xIDAtNi4yLS4zLTQwLjQtLjMtNjEuNCAwIDAtNzAgMTUtODQuNy0yOS44IDAgMC0xMS40LTI5LjEtMjcuOC0zNi42IDAgMC0yMi45LTE1LjcgMS42LTE1LjQgMCAwIDI0LjkgMiAzOC42IDI1LjggMjEuOSAzOC42IDU4LjYgMjcuNSA3Mi45IDIwLjkgMi4zLTE2IDguOC0yNy4xIDE2LTMzLjctNTUuOS02LjItMTEyLjMtMTQuMy0xMTIuMy0xMTAuNSAwLTI3LjUgNy42LTQxLjMgMjMuNi01OC45LTIuNi02LjUtMTEuMS0zMy4zIDIuNi02Ny45IDIwLjktNi41IDY5IDI3IDY5IDI3IDIwLTUuNiA0MS41LTguNSA2Mi44LTguNXM0Mi44IDIuOSA2Mi44IDguNWMwIDAgNDguMS0zMy42IDY5LTI3IDEzLjcgMzQuNyA1LjIgNjEuNCAyLjYgNjcuOSAxNiAxNy43IDI1LjggMzEuNSAyNS44IDU4LjkgMCA5Ni41LTU4LjkgMTA0LjItMTE0LjggMTEwLjUgOS4yIDcuOSAxNyAyMi45IDE3IDQ2LjQgMCAzMy43LS4zIDc1LjQtLjMgODMuNiAwIDYuNSA0LjYgMTQuNCAxNy4zIDEyLjFDNDI4LjIgNDU3LjggNDk2IDM2Mi45IDQ5NiAyNTIgNDk2IDExMy4zIDM4My41IDggMjQ0LjggOHpNOTcuMiAzNTIuOWMtMS4zIDEtMSAzLjMgLjcgNS4yIDEuNiAxLjYgMy45IDIuMyA1LjIgMSAxLjMtMSAxLTMuMy0uNy01LjItMS42LTEuNi0zLjktMi4zLTUuMi0xem0tMTAuOC04LjFjLS43IDEuMyAuMyAyLjkgMi4zIDMuOSAxLjYgMSAzLjYgLjcgNC4zLS43IC43LTEuMy0uMy0yLjktMi4zLTMuOS0yLS42LTMuNi0uMy00LjMgLjd6bTMyLjQgMzUuNmMtMS42IDEuMy0xIDQuMyAxLjMgNi4yIDIuMyAyLjMgNS4yIDIuNiA2LjUgMSAxLjMtMS4zIC43LTQuMy0xLjMtNi4yLTIuMi0yLjMtNS4yLTIuNi02LjUtMXptLTExLjQtMTQuN2MtMS42IDEtMS42IDMuNiAwIDUuOSAxLjYgMi4zIDQuMyAzLjMgNS42IDIuMyAxLjYtMS4zIDEuNi0zLjkgMC02LjItMS40LTIuMy00LTMuMy01LjYtMnoiLz48L3N2Zz4=;" vertex="1" parent="1">
          <mxGeometry x="1050" y="-1020" width="77.5" height="80" as="geometry" />
        </mxCell>
      </root>
    </mxGraphModel>
  </diagram>
</mxfile>
